<svg width="119px" height="46px" id="Layer_1" data-name="Layer 1" xmlns="http://www.w3.org/2000/svg" viewBox="0 0 287.35 119.24"><defs><style>.cls-1{fill:#414141;}.cls-2{fill:#f32735;}.cls-3{fill:#fff;}</style></defs><path class="cls-1" d="M168.12,92.78h-.34a6.11,6.11,0,0,1-5.71-3.93l-3.9-10.13H133.44l-3.64,10a6.13,6.13,0,1,1-11.47-4.32l18.44-47.34A9.71,9.71,0,0,1,154.83,37l19,47.37a6.13,6.13,0,0,1-5.68,8.41m-14-24.48-8.53-23-8.36,23Z"/><path class="cls-1" d="M177.9,86.53V37.07a6.17,6.17,0,0,1,6.17-6.17H198q11.4,0,14.86.93a16.23,16.23,0,0,1,8.9,6.06q3.58,4.65,3.59,12a20.18,20.18,0,0,1-2.07,9.59,17,17,0,0,1-5.26,6.1,18.22,18.22,0,0,1-6.47,2.93,70.55,70.55,0,0,1-13,.89h-8.15V86.53a6.25,6.25,0,1,1-12.49,0m12.49-45.16V58.93h6.84c4.92,0,8.21-.33,9.88-1a8.14,8.14,0,0,0,5.32-7.85,7.94,7.94,0,0,0-2-5.57,8.64,8.64,0,0,0-5-2.75,60.35,60.35,0,0,0-9-.42Z"/><path class="cls-1" d="M229,86.53V37.07a6.17,6.17,0,0,1,6.17-6.17h13.88q11.4,0,14.86.93a16.23,16.23,0,0,1,8.9,6.06q3.58,4.65,3.59,12a20.18,20.18,0,0,1-2.07,9.59,17,17,0,0,1-5.26,6.1,18.22,18.22,0,0,1-6.47,2.93,70.48,70.48,0,0,1-13,.89h-8.15V86.53a6.25,6.25,0,1,1-12.49,0m12.49-45.16V58.93h6.84c4.92,0,8.22-.33,9.88-1a8.19,8.19,0,0,0,3.9-3,8.34,8.34,0,0,0,1.42-4.81,7.94,7.94,0,0,0-2-5.57,8.64,8.64,0,0,0-5-2.75,60.35,60.35,0,0,0-9-.42Z"/><rect class="cls-2" x="15.84" y="17.38" width="88.92" height="88.92" rx="8.1"/><path class="cls-3" d="M86.14,62.66a31.56,31.56,0,0,1-63.09,0h1.56a24.32,24.32,0,0,0,48.64,0Zm14.65,0a40.49,40.49,0,0,1-81,0h1.65a33.18,33.18,0,0,0,66.34,0Zm-29.18,0a22.7,22.7,0,0,1-45.39,0h1.67c0,.19,0,.38,0,.56a16.23,16.23,0,1,0,32.45,0c0-.18,0-.37,0-.56ZM49,61a22.7,22.7,0,0,1,45.39,0H92.72c0-.18,0-.37,0-.56a16.23,16.23,0,0,0-32.45,0c0,.19,0,.38,0,.56ZM19.82,61a40.49,40.49,0,0,1,81,0H99.14A33.18,33.18,0,0,0,32.8,61Zm14.65,0a31.56,31.56,0,0,1,63.09,0H96a24.32,24.32,0,0,0-48.64,0Z"/></svg>